**********************
PowerShell transcript start
Start time: 20230516213501
**********************
Transcript started, output file is ./logs/h264nvenc_bframes_4_200808.avi.log
DEBUG Invoke-Process
File: ffmpeg
Arg: -y -nostats -hwaccel nvdec -i 200808.avi -an -c:v h264_nvenc -preset:v p7 -profile:v high -rc:v vbr -rc-lookahead 1 -spatial-aq 0 -temporal-aq 1 -cq 23 -weighted_pred 0 -coder cabac -b_ref_mode 1 -dpb_size 4 -multipass 1 -g 120 -bf 2 -pix_fmt yuv420p -color_range tv -color_primaries bt709 -color_trc bt709 -colorspace bt709 -movflags +faststart 200808.avi.mp4
ArgList:

ffmpeg version N-109952-g52a0852ae6-20230302 Copyright (c) 2000-2023 the FFmpeg developers
  built with gcc 12.2.0 (crosstool-NG 1.25.0.90_cf9beb1)
  configuration: --prefix=/ffbuild/prefix --pkg-config-flags=--static --pkg-config=pkg-config --cross-prefix=x86_64-w64-mingw32- --arch=x86_64 --target-os=mingw32 --enable-nonfree --enable-gpl --enable-version3 --disable-debug --disable-w32threads --enable-pthreads --enable-iconv --enable-libxml2 --enable-zlib --enable-libfreetype --enable-libfribidi --enable-gmp --enable-lzma --enable-fontconfig --enable-libvorbis --enable-opencl --disable-libpulse --enable-libvmaf --disable-libxcb --disable-xlib --enable-amf --enable-libaom --enable-libaribb24 --enable-avisynth --enable-chromaprint --enable-libdav1d --enable-libdavs2 --enable-libfdk-aac --enable-ffnvcodec --enable-cuda-llvm --enable-frei0r --enable-libgme --enable-libkvazaar --enable-libass --enable-libbluray --enable-libjxl --enable-libmp3lame --enable-libopus --enable-librist --enable-libssh --enable-libtheora --enable-libvpx --enable-libwebp --enable-lv2 --disable-libmfx --enable-libvpl --enable-openal --enable-libopencore-amrnb --enable-libopencore-amrwb --enable-libopenh264 --enable-libopenjpeg --enable-libopenmpt --enable-librav1e --enable-librubberband --enable-schannel --enable-sdl2 --enable-libsoxr --enable-libsrt --enable-libsvtav1 --enable-libtwolame --enable-libuavs3d --disable-libdrm --disable-vaapi --enable-libvidstab --enable-vulkan --enable-libshaderc --enable-libplacebo --enable-libx264 --enable-libx265 --enable-libxavs2 --enable-libxvid --enable-libzimg --enable-libzvbi --extra-cflags=-DLIBTWOLAME_STATIC --extra-cxxflags= --extra-ldflags=-pthread --extra-ldexeflags= --extra-libs=-lgomp --extra-version=20230302
  libavutil      58.  3.100 / 58.  3.100
  libavcodec     60.  5.100 / 60.  5.100
  libavformat    60.  4.100 / 60.  4.100
  libavdevice    60.  2.100 / 60.  2.100
  libavfilter     9.  4.100 /  9.  4.100
  libswscale      7.  2.100 /  7.  2.100
  libswresample   4. 11.100 /  4. 11.100
  libpostproc    57.  2.100 / 57.  2.100
Input #0, avi, from '200808.avi':
  Metadata:
    software        : Lavf58.49.100
  Duration: 00:02:01.05, start: 0.000000, bitrate: 745549 kb/s
  Stream #0:0: Video: rawvideo (I420 / 0x30323449), yuv420p, 1920x1080, 745750 kb/s, SAR 1:1 DAR 16:9, 29.97 fps, 29.97 tbr, 29.97 tbn
Stream mapping:
  Stream #0:0 -> #0:0 (rawvideo (native) -> h264 (h264_nvenc))
Press [q] to stop, [?] for help
Output #0, mp4, to '200808.avi.mp4':
    software        : Lavf58.49.100
    encoder         : Lavf60.4.100
  Stream #0:0: Video: h264 (High) (avc1 / 0x31637661), yuv420p(tv, bt709, progressive), 1920x1080 [SAR 1:1 DAR 16:9], q=2-31, 29.97 fps, 30k tbn
    Metadata:
      encoder         : Lavc60.5.100 h264_nvenc
    Side data:
      cpb: bitrate max/min/avg: 0/0/0 buffer size: 0 vbv_delay: N/A
  Metadata:
[mp4 @ 00000203dfe845c0] Starting second pass: moving the moov atom to the beginning of the file
frame= 3628 fps=146 q=21.0 Lsize=  163764kB time=00:02:00.95 bitrate=11091.4kbits/s dup=1 drop=0 speed=4.88x    
video:163727kB audio:0kB subtitle:0kB other streams:0kB global headers:0kB muxing overhead: 0.022543%
DEBUG ExitCode: 0
DEBUG Invoke-Process
File: ffmpeg
Arg: -y -nostats -hwaccel nvdec -i 200808.avi.mp4 -i 200808.avi -filter_complex libvmaf=model=version=vmaf_v0.6.1neg\\:name=vmaf_neg -an -f null -
ArgList:

ffmpeg version N-109952-g52a0852ae6-20230302 Copyright (c) 2000-2023 the FFmpeg developers
  built with gcc 12.2.0 (crosstool-NG 1.25.0.90_cf9beb1)
  configuration: --prefix=/ffbuild/prefix --pkg-config-flags=--static --pkg-config=pkg-config --cross-prefix=x86_64-w64-mingw32- --arch=x86_64 --target-os=mingw32 --enable-nonfree --enable-gpl --enable-version3 --disable-debug --disable-w32threads --enable-pthreads --enable-iconv --enable-libxml2 --enable-zlib --enable-libfreetype --enable-libfribidi --enable-gmp --enable-lzma --enable-fontconfig --enable-libvorbis --enable-opencl --disable-libpulse --enable-libvmaf --disable-libxcb --disable-xlib --enable-amf --enable-libaom --enable-libaribb24 --enable-avisynth --enable-chromaprint --enable-libdav1d --enable-libdavs2 --enable-libfdk-aac --enable-ffnvcodec --enable-cuda-llvm --enable-frei0r --enable-libgme --enable-libkvazaar --enable-libass --enable-libbluray --enable-libjxl --enable-libmp3lame --enable-libopus --enable-librist --enable-libssh --enable-libtheora --enable-libvpx --enable-libwebp --enable-lv2 --disable-libmfx --enable-libvpl --enable-openal --enable-libopencore-amrnb --enable-libopencore-amrwb --enable-libopenh264 --enable-libopenjpeg --enable-libopenmpt --enable-librav1e --enable-librubberband --enable-schannel --enable-sdl2 --enable-libsoxr --enable-libsrt --enable-libsvtav1 --enable-libtwolame --enable-libuavs3d --disable-libdrm --disable-vaapi --enable-libvidstab --enable-vulkan --enable-libshaderc --enable-libplacebo --enable-libx264 --enable-libx265 --enable-libxavs2 --enable-libxvid --enable-libzimg --enable-libzvbi --extra-cflags=-DLIBTWOLAME_STATIC --extra-cxxflags= --extra-ldflags=-pthread --extra-ldexeflags= --extra-libs=-lgomp --extra-version=20230302
  libavutil      58.  3.100 / 58.  3.100
  libavcodec     60.  5.100 / 60.  5.100
  libavformat    60.  4.100 / 60.  4.100
  libavdevice    60.  2.100 / 60.  2.100
  libavfilter     9.  4.100 /  9.  4.100
  libswscale      7.  2.100 /  7.  2.100
  libswresample   4. 11.100 /  4. 11.100
  libpostproc    57.  2.100 / 57.  2.100
Input #0, mov,mp4,m4a,3gp,3g2,mj2, from '200808.avi.mp4':
  Metadata:
    major_brand     : isom
    minor_version   : 512
    compatible_brands: isomiso2avc1mp41
    encoder         : Lavf60.4.100
  Duration: 00:02:01.05, start: 0.000000, bitrate: 11082 kb/s
  Stream #0:0[0x1](und): Video: h264 (High) (avc1 / 0x31637661), yuv420p(tv, bt709, progressive), 1920x1080 [SAR 1:1 DAR 16:9], 11079 kb/s, 29.97 fps, 29.97 tbr, 30k tbn (default)
      handler_name    : VideoHandler
      vendor_id       : [0][0][0][0]
      encoder         : Lavc60.5.100 h264_nvenc
    Metadata:
Input #1, avi, from '200808.avi':
  Metadata:
    software        : Lavf58.49.100
  Duration: 00:02:01.05, start: 0.000000, bitrate: 745549 kb/s
  Stream #1:0: Video: rawvideo (I420 / 0x30323449), yuv420p, 1920x1080, 745750 kb/s, SAR 1:1 DAR 16:9, 29.97 fps, 29.97 tbr, 29.97 tbn
Stream mapping:
  Stream #0:0 (h264) -> libvmaf
  Stream #1:0 (rawvideo) -> libvmaf
  libvmaf:default -> Stream #0:0 (wrapped_avframe)
Press [q] to stop, [?] for help
Output #0, null, to 'pipe:':
  Metadata:
    major_brand     : isom
    minor_version   : 512
    compatible_brands: isomiso2avc1mp41
    encoder         : Lavf60.4.100
  Stream #0:0: Video: wrapped_avframe, yuv420p(tv, bt709, progressive), 1920x1080 [SAR 1:1 DAR 16:9], q=2-31, 200 kb/s, 29.97 fps, 29.97 tbn
    Metadata:
      encoder         : Lavc60.5.100 wrapped_avframe
frame= 3628 fps= 11 q=-0.0 Lsize=N/A time=00:02:01.02 bitrate=N/A speed=0.351x    
video:1701kB audio:0kB subtitle:0kB other streams:0kB global headers:0kB muxing overhead: unknown
[Parsed_libvmaf_0 @ 00000296b2a07a40] VMAF score: 95.265645
DEBUG ExitCode: 0
DEBUG Invoke-Process
File: ffmpeg
Arg: -y -nostats -hwaccel nvdec -i 200808.avi -an -c:v h264_nvenc -preset:v p7 -profile:v high -rc:v vbr -rc-lookahead 1 -spatial-aq 0 -temporal-aq 1 -cq 23 -weighted_pred 0 -coder cabac -b_ref_mode 1 -dpb_size 4 -multipass 1 -g 120 -bf 3 -pix_fmt yuv420p -color_range tv -color_primaries bt709 -color_trc bt709 -colorspace bt709 -movflags +faststart 200808.avi.mp4
ArgList:

ffmpeg version N-109952-g52a0852ae6-20230302 Copyright (c) 2000-2023 the FFmpeg developers
  built with gcc 12.2.0 (crosstool-NG 1.25.0.90_cf9beb1)
  configuration: --prefix=/ffbuild/prefix --pkg-config-flags=--static --pkg-config=pkg-config --cross-prefix=x86_64-w64-mingw32- --arch=x86_64 --target-os=mingw32 --enable-nonfree --enable-gpl --enable-version3 --disable-debug --disable-w32threads --enable-pthreads --enable-iconv --enable-libxml2 --enable-zlib --enable-libfreetype --enable-libfribidi --enable-gmp --enable-lzma --enable-fontconfig --enable-libvorbis --enable-opencl --disable-libpulse --enable-libvmaf --disable-libxcb --disable-xlib --enable-amf --enable-libaom --enable-libaribb24 --enable-avisynth --enable-chromaprint --enable-libdav1d --enable-libdavs2 --enable-libfdk-aac --enable-ffnvcodec --enable-cuda-llvm --enable-frei0r --enable-libgme --enable-libkvazaar --enable-libass --enable-libbluray --enable-libjxl --enable-libmp3lame --enable-libopus --enable-librist --enable-libssh --enable-libtheora --enable-libvpx --enable-libwebp --enable-lv2 --disable-libmfx --enable-libvpl --enable-openal --enable-libopencore-amrnb --enable-libopencore-amrwb --enable-libopenh264 --enable-libopenjpeg --enable-libopenmpt --enable-librav1e --enable-librubberband --enable-schannel --enable-sdl2 --enable-libsoxr --enable-libsrt --enable-libsvtav1 --enable-libtwolame --enable-libuavs3d --disable-libdrm --disable-vaapi --enable-libvidstab --enable-vulkan --enable-libshaderc --enable-libplacebo --enable-libx264 --enable-libx265 --enable-libxavs2 --enable-libxvid --enable-libzimg --enable-libzvbi --extra-cflags=-DLIBTWOLAME_STATIC --extra-cxxflags= --extra-ldflags=-pthread --extra-ldexeflags= --extra-libs=-lgomp --extra-version=20230302
  libavutil      58.  3.100 / 58.  3.100
  libavcodec     60.  5.100 / 60.  5.100
  libavformat    60.  4.100 / 60.  4.100
  libavdevice    60.  2.100 / 60.  2.100
  libavfilter     9.  4.100 /  9.  4.100
  libswscale      7.  2.100 /  7.  2.100
  libswresample   4. 11.100 /  4. 11.100
  libpostproc    57.  2.100 / 57.  2.100
Input #0, avi, from '200808.avi':
  Metadata:
  Duration: 00:02:01.05, start: 0.000000, bitrate: 745549 kb/s
  Stream #0:0: Video: rawvideo (I420 / 0x30323449), yuv420p, 1920x1080, 745750 kb/s, SAR 1:1 DAR 16:9, 29.97 fps, 29.97 tbr, 29.97 tbn
    software        : Lavf58.49.100
Stream mapping:
  Stream #0:0 -> #0:0 (rawvideo (native) -> h264 (h264_nvenc))
Press [q] to stop, [?] for help
Output #0, mp4, to '200808.avi.mp4':
  Metadata:
    software        : Lavf58.49.100
    encoder         : Lavf60.4.100
    Metadata:
  Stream #0:0: Video: h264 (High) (avc1 / 0x31637661), yuv420p(tv, bt709, progressive), 1920x1080 [SAR 1:1 DAR 16:9], q=2-31, 29.97 fps, 30k tbn
      encoder         : Lavc60.5.100 h264_nvenc
    Side data:
      cpb: bitrate max/min/avg: 0/0/0 buffer size: 0 vbv_delay: N/A
[mp4 @ 00000219c09745c0] Starting second pass: moving the moov atom to the beginning of the file
frame= 3628 fps=207 q=20.0 Lsize=  163400kB time=00:02:00.92 bitrate=11069.9kbits/s dup=1 drop=0 speed= 6.9x    
video:163368kB audio:0kB subtitle:0kB other streams:0kB global headers:0kB muxing overhead: 0.020084%
DEBUG ExitCode: 0
DEBUG Invoke-Process
File: ffmpeg
Arg: -y -nostats -hwaccel nvdec -i 200808.avi.mp4 -i 200808.avi -filter_complex libvmaf=model=version=vmaf_v0.6.1neg\\:name=vmaf_neg -an -f null -
ArgList:

built with gcc 12.2.0 (crosstool-NG 1.25.0.90_cf9beb1)
  configuration: --prefix=/ffbuild/prefix --pkg-config-flags=--static --pkg-config=pkg-config --cross-prefix=x86_64-w64-mingw32- --arch=x86_64 --target-os=mingw32 --enable-nonfree --enable-gpl --enable-version3 --disable-debug --disable-w32threads --enable-pthreads --enable-iconv --enable-libxml2 --enable-zlib --enable-libfreetype --enable-libfribidi --enable-gmp --enable-lzma --enable-fontconfig --enable-libvorbis --enable-opencl --disable-libpulse --enable-libvmaf --disable-libxcb --disable-xlib --enable-amf --enable-libaom --enable-libaribb24 --enable-avisynth --enable-chromaprint --enable-libdav1d --enable-libdavs2 --enable-libfdk-aac --enable-ffnvcodec --enable-cuda-llvm --enable-frei0r --enable-libgme --enable-libkvazaar --enable-libass --enable-libbluray --enable-libjxl --enable-libmp3lame --enable-libopus --enable-librist --enable-libssh --enable-libtheora --enable-libvpx --enable-libwebp --enable-lv2 --disable-libmfx --enable-libvpl --enable-openal --enable-libopencore-amrnb --enable-libopencore-amrwb --enable-libopenh264 --enable-libopenjpeg --enable-libopenmpt --enable-librav1e --enable-librubberband --enable-schannel --enable-sdl2 --enable-libsoxr --enable-libsrt --enable-libsvtav1 --enable-libtwolame --enable-libuavs3d --disable-libdrm --disable-vaapi --enable-libvidstab --enable-vulkan --enable-libshaderc --enable-libplacebo --enable-libx264 --enable-libx265 --enable-libxavs2 --enable-libxvid --enable-libzimg --enable-libzvbi --extra-cflags=-DLIBTWOLAME_STATIC --extra-cxxflags= --extra-ldflags=-pthread --extra-ldexeflags= --extra-libs=-lgomp --extra-version=20230302
  libavutil      58.  3.100 / 58.  3.100
  libavcodec     60.  5.100 / 60.  5.100
  libavformat    60.  4.100 / 60.  4.100
  libavdevice    60.  2.100 / 60.  2.100
  libswscale      7.  2.100 /  7.  2.100
  libswresample   4. 11.100 /  4. 11.100
  libpostproc    57.  2.100 / 57.  2.100
ffmpeg version N-109952-g52a0852ae6-20230302 Copyright (c) 2000-2023 the FFmpeg developers
  libavfilter     9.  4.100 /  9.  4.100
Input #0, mov,mp4,m4a,3gp,3g2,mj2, from '200808.avi.mp4':
  Metadata:
    major_brand     : isom
    minor_version   : 512
    compatible_brands: isomiso2avc1mp41
    encoder         : Lavf60.4.100
  Duration: 00:02:01.05, start: 0.000000, bitrate: 11057 kb/s
  Stream #0:0[0x1](und): Video: h264 (High) (avc1 / 0x31637661), yuv420p(tv, bt709, progressive), 1920x1080 [SAR 1:1 DAR 16:9], 11055 kb/s, 29.97 fps, 29.97 tbr, 30k tbn (default)
    Metadata:
      handler_name    : VideoHandler
      encoder         : Lavc60.5.100 h264_nvenc
      vendor_id       : [0][0][0][0]
Input #1, avi, from '200808.avi':
  Metadata:
    software        : Lavf58.49.100
  Duration: 00:02:01.05, start: 0.000000, bitrate: 745549 kb/s
  Stream #1:0: Video: rawvideo (I420 / 0x30323449), yuv420p, 1920x1080, 745750 kb/s, SAR 1:1 DAR 16:9, 29.97 fps, 29.97 tbr, 29.97 tbn
  Stream #0:0 (h264) -> libvmaf
Stream mapping:
  Stream #1:0 (rawvideo) -> libvmaf
  libvmaf:default -> Stream #0:0 (wrapped_avframe)
Press [q] to stop, [?] for help
Output #0, null, to 'pipe:':
  Metadata:
    major_brand     : isom
    minor_version   : 512
    compatible_brands: isomiso2avc1mp41
    encoder         : Lavf60.4.100
  Stream #0:0: Video: wrapped_avframe, yuv420p(tv, bt709, progressive), 1920x1080 [SAR 1:1 DAR 16:9], q=2-31, 200 kb/s, 29.97 fps, 29.97 tbn
    Metadata:
      encoder         : Lavc60.5.100 wrapped_avframe
frame= 3628 fps= 11 q=-0.0 Lsize=N/A time=00:02:01.02 bitrate=N/A speed=0.351x    
video:1701kB audio:0kB subtitle:0kB other streams:0kB global headers:0kB muxing overhead: unknown
[Parsed_libvmaf_0 @ 0000023cca37b900] VMAF score: 95.015357
DEBUG ExitCode: 0
DEBUG Invoke-Process
File: ffmpeg
Arg: -y -nostats -hwaccel nvdec -i 200808.avi -an -c:v h264_nvenc -preset:v p7 -profile:v high -rc:v vbr -rc-lookahead 1 -spatial-aq 0 -temporal-aq 1 -cq 23 -weighted_pred 0 -coder cabac -b_ref_mode 1 -dpb_size 4 -multipass 1 -g 120 -bf 4 -pix_fmt yuv420p -color_range tv -color_primaries bt709 -color_trc bt709 -colorspace bt709 -movflags +faststart 200808.avi.mp4
ArgList:

ffmpeg version N-109952-g52a0852ae6-20230302 Copyright (c) 2000-2023 the FFmpeg developers
  built with gcc 12.2.0 (crosstool-NG 1.25.0.90_cf9beb1)
  configuration: --prefix=/ffbuild/prefix --pkg-config-flags=--static --pkg-config=pkg-config --cross-prefix=x86_64-w64-mingw32- --arch=x86_64 --target-os=mingw32 --enable-nonfree --enable-gpl --enable-version3 --disable-debug --disable-w32threads --enable-pthreads --enable-iconv --enable-libxml2 --enable-zlib --enable-libfreetype --enable-libfribidi --enable-gmp --enable-lzma --enable-fontconfig --enable-libvorbis --enable-opencl --disable-libpulse --enable-libvmaf --disable-libxcb --disable-xlib --enable-amf --enable-libaom --enable-libaribb24 --enable-avisynth --enable-chromaprint --enable-libdav1d --enable-libdavs2 --enable-libfdk-aac --enable-ffnvcodec --enable-cuda-llvm --enable-frei0r --enable-libgme --enable-libkvazaar --enable-libass --enable-libbluray --enable-libjxl --enable-libmp3lame --enable-libopus --enable-librist --enable-libssh --enable-libtheora --enable-libvpx --enable-libwebp --enable-lv2 --disable-libmfx --enable-libvpl --enable-openal --enable-libopencore-amrnb --enable-libopencore-amrwb --enable-libopenh264 --enable-libopenjpeg --enable-libopenmpt --enable-librav1e --enable-librubberband --enable-schannel --enable-sdl2 --enable-libsoxr --enable-libsrt --enable-libsvtav1 --enable-libtwolame --enable-libuavs3d --disable-libdrm --disable-vaapi --enable-libvidstab --enable-vulkan --enable-libshaderc --enable-libplacebo --enable-libx264 --enable-libx265 --enable-libxavs2 --enable-libxvid --enable-libzimg --enable-libzvbi --extra-cflags=-DLIBTWOLAME_STATIC --extra-cxxflags= --extra-ldflags=-pthread --extra-ldexeflags= --extra-libs=-lgomp --extra-version=20230302
  libavutil      58.  3.100 / 58.  3.100
  libavcodec     60.  5.100 / 60.  5.100
  libavformat    60.  4.100 / 60.  4.100
  libavdevice    60.  2.100 / 60.  2.100
  libavfilter     9.  4.100 /  9.  4.100
  libswscale      7.  2.100 /  7.  2.100
  libswresample   4. 11.100 /  4. 11.100
  libpostproc    57.  2.100 / 57.  2.100
Input #0, avi, from '200808.avi':
  Metadata:
    software        : Lavf58.49.100
  Duration: 00:02:01.05, start: 0.000000, bitrate: 745549 kb/s
  Stream #0:0: Video: rawvideo (I420 / 0x30323449), yuv420p, 1920x1080, 745750 kb/s, SAR 1:1 DAR 16:9, 29.97 fps, 29.97 tbr, 29.97 tbn
Stream mapping:
  Stream #0:0 -> #0:0 (rawvideo (native) -> h264 (h264_nvenc))
Press [q] to stop, [?] for help
Output #0, mp4, to '200808.avi.mp4':
  Metadata:
    encoder         : Lavf60.4.100
  Stream #0:0: Video: h264 (High) (avc1 / 0x31637661), yuv420p(tv, bt709, progressive), 1920x1080 [SAR 1:1 DAR 16:9], q=2-31, 29.97 fps, 30k tbn
    Metadata:
    software        : Lavf58.49.100
      encoder         : Lavc60.5.100 h264_nvenc
    Side data:
      cpb: bitrate max/min/avg: 0/0/0 buffer size: 0 vbv_delay: N/A
[mp4 @ 000002f7523545c0] Starting second pass: moving the moov atom to the beginning of the file
frame= 3628 fps=203 q=20.0 Lsize=  157115kB time=00:02:00.88 bitrate=10647.0kbits/s dup=1 drop=0 speed=6.78x    
video:157085kB audio:0kB subtitle:0kB other streams:0kB global headers:0kB muxing overhead: 0.019308%
DEBUG ExitCode: 0
DEBUG Invoke-Process
File: ffmpeg
Arg: -y -nostats -hwaccel nvdec -i 200808.avi.mp4 -i 200808.avi -filter_complex libvmaf=model=version=vmaf_v0.6.1neg\\:name=vmaf_neg -an -f null -
ArgList:

ffmpeg version N-109952-g52a0852ae6-20230302 Copyright (c) 2000-2023 the FFmpeg developers
  built with gcc 12.2.0 (crosstool-NG 1.25.0.90_cf9beb1)
  configuration: --prefix=/ffbuild/prefix --pkg-config-flags=--static --pkg-config=pkg-config --cross-prefix=x86_64-w64-mingw32- --arch=x86_64 --target-os=mingw32 --enable-nonfree --enable-gpl --enable-version3 --disable-debug --disable-w32threads --enable-pthreads --enable-iconv --enable-libxml2 --enable-zlib --enable-libfreetype --enable-libfribidi --enable-gmp --enable-lzma --enable-fontconfig --enable-libvorbis --enable-opencl --disable-libpulse --enable-libvmaf --disable-libxcb --disable-xlib --enable-amf --enable-libaom --enable-libaribb24 --enable-avisynth --enable-chromaprint --enable-libdav1d --enable-libdavs2 --enable-libfdk-aac --enable-ffnvcodec --enable-cuda-llvm --enable-frei0r --enable-libgme --enable-libkvazaar --enable-libass --enable-libbluray --enable-libjxl --enable-libmp3lame --enable-libopus --enable-librist --enable-libssh --enable-libtheora --enable-libvpx --enable-libwebp --enable-lv2 --disable-libmfx --enable-libvpl --enable-openal --enable-libopencore-amrnb --enable-libopencore-amrwb --enable-libopenh264 --enable-libopenjpeg --enable-libopenmpt --enable-librav1e --enable-librubberband --enable-schannel --enable-sdl2 --enable-libsoxr --enable-libsrt --enable-libsvtav1 --enable-libtwolame --enable-libuavs3d --disable-libdrm --disable-vaapi --enable-libvidstab --enable-vulkan --enable-libshaderc --enable-libplacebo --enable-libx264 --enable-libx265 --enable-libxavs2 --enable-libxvid --enable-libzimg --enable-libzvbi --extra-cflags=-DLIBTWOLAME_STATIC --extra-cxxflags= --extra-ldflags=-pthread --extra-ldexeflags= --extra-libs=-lgomp --extra-version=20230302
  libavutil      58.  3.100 / 58.  3.100
  libavcodec     60.  5.100 / 60.  5.100
  libavformat    60.  4.100 / 60.  4.100
  libavdevice    60.  2.100 / 60.  2.100
  libavfilter     9.  4.100 /  9.  4.100
  libswscale      7.  2.100 /  7.  2.100
  libswresample   4. 11.100 /  4. 11.100
  libpostproc    57.  2.100 / 57.  2.100
Input #0, mov,mp4,m4a,3gp,3g2,mj2, from '200808.avi.mp4':
  Metadata:
    minor_version   : 512
    major_brand     : isom
    compatible_brands: isomiso2avc1mp41
  Duration: 00:02:01.05, start: 0.000000, bitrate: 10632 kb/s
    encoder         : Lavf60.4.100
  Stream #0:0[0x1](und): Video: h264 (High) (avc1 / 0x31637661), yuv420p(tv, bt709, progressive), 1920x1080 [SAR 1:1 DAR 16:9], 10630 kb/s, 29.97 fps, 29.97 tbr, 30k tbn (default)
    Metadata:
      handler_name    : VideoHandler
      vendor_id       : [0][0][0][0]
      encoder         : Lavc60.5.100 h264_nvenc
Input #1, avi, from '200808.avi':
  Metadata:
    software        : Lavf58.49.100
  Stream #1:0: Video: rawvideo (I420 / 0x30323449), yuv420p, 1920x1080, 745750 kb/s, SAR 1:1 DAR 16:9, 29.97 fps, 29.97 tbr, 29.97 tbn
  Duration: 00:02:01.05, start: 0.000000, bitrate: 745549 kb/s
Stream mapping:
  Stream #0:0 (h264) -> libvmaf
  Stream #1:0 (rawvideo) -> libvmaf
  libvmaf:default -> Stream #0:0 (wrapped_avframe)
Press [q] to stop, [?] for help
Output #0, null, to 'pipe:':
  Metadata:
    major_brand     : isom
    minor_version   : 512
    compatible_brands: isomiso2avc1mp41
    encoder         : Lavf60.4.100
  Stream #0:0: Video: wrapped_avframe, yuv420p(tv, bt709, progressive), 1920x1080 [SAR 1:1 DAR 16:9], q=2-31, 200 kb/s, 29.97 fps, 29.97 tbn
    Metadata:
      encoder         : Lavc60.5.100 wrapped_avframe
frame= 3628 fps= 11 q=-0.0 Lsize=N/A time=00:02:01.02 bitrate=N/A speed=0.351x    
video:1701kB audio:0kB subtitle:0kB other streams:0kB global headers:0kB muxing overhead: unknown
[Parsed_libvmaf_0 @ 0000020671787a40] VMAF score: 94.737985
DEBUG ExitCode: 0
**********************
PowerShell transcript end
End time: 20230516215319
**********************
